<svg xmlns="http://www.w3.org/2000/svg" viewBox="0 0 338.4 354.09"><defs><style>.cls-1{stroke:#000;}.cls-1,.cls-2{stroke-miterlimit:10;}.cls-2{fill:#8cc63f;stroke:#8cc63f;}</style></defs><g id="Capa_2" data-name="Capa 2"><g id="Capa_1-2" data-name="Capa 1"><path class="cls-1" d="M70.36,206.5V236l59.87,30.5s20-3,11.4-9-54.16-28-54.16-28l-2.08-23S77,200.5,70.36,206.5Z"/><path class="cls-1" d="M220.1,190.5l35.57,19v25.67L119.78,296.5s-7.61,13,8.55,11,141.59-67,141.59-67V203.83L239.51,184.5S222.54,182.5,220.1,190.5Z"/><path class="cls-1" d="M123.58,323.5l83.62-41s20,5,8.55,14-80.77,37-80.77,37S126.43,334.5,123.58,323.5Z"/><path class="cls-1" d="M149.23,344.5l58.92-30s7.6,3,3.8,8-53.21,28-53.21,28S150.18,360.5,149.23,344.5Z"/><polygon class="cls-2" points="135.93 217.5 135.93 169.46 135.93 165 149.23 165 149.23 173.32 171.43 157.89 207.27 184.28 207.27 217.5 193.96 217.5 193.96 187.7 171.6 171.39 149.23 187.7 149.23 217.5 135.93 217.5"/><path class="cls-2" d="M113.12,198.5l-38-19V144.39L171.6,95.21l98.32,48.22v31.82S258.59,178.5,259.5,165s-2.75-16.5-2.75-16.5l-84.23-35.93L91.81,148.5l-2.44,24L118,187.7S129.28,199.5,113.12,198.5Z"/><polygon class="cls-1" points="1.5 133.73 47.04 152.16 45.41 146.19 9.72 131.26 1.5 133.73"/><rect class="cls-1" x="166.34" y="0.5" width="10.69" height="64.5"/><path class="cls-1" d="M263.27,74.5l42.05-31s15-11,4.51,4-39.91,35.18-39.91,35.18Z"/><polygon class="cls-1" points="37.1 43.5 90.32 86.5 90.32 77.86 48.77 43.5 37.1 43.5"/><polygon class="cls-1" points="289.19 147.29 337.37 139.28 333.13 134.96 295.13 140.82 289.19 147.29"/><rect class="cls-2" x="167.29" y="207.5" width="10.45" height="11" rx="0.29"/></g></g></svg>